<?xml version="1.0" encoding="utf-8"?>
<!-- Generator: Adobe Illustrator 15.1.0, SVG Export Plug-In . SVG Version: 6.00 Build 0)  -->
<!DOCTYPE svg PUBLIC "-//W3C//DTD SVG 1.1//EN" "http://www.w3.org/Graphics/SVG/1.1/DTD/svg11.dtd">
<svg version="1.1" xmlns="http://www.w3.org/2000/svg" xmlns:xlink="http://www.w3.org/1999/xlink" x="0px" y="0px" width="50px"
	 height="50px" viewBox="0 0 50 50" enable-background="new 0 0 50 50" xml:space="preserve">
<g id="レイヤー_1" display="none">
	<g display="inline">
		<path fill="#FF533F" d="M33.562,41.066c0,0,1.518-0.254,3.603-2.646l-2.691-0.273L33.562,41.066z"/>
		<path fill="#FF533F" d="M33.352,8.011c0,0,1.518,0.255,3.602,2.646l-2.689,0.275L33.352,8.011z"/>
		<g>
			<circle fill="#FF533F" cx="35.153" cy="24.319" r="14.847"/>
			<circle fill="#FFFFFF" cx="35.153" cy="24.319" r="4.908"/>
		</g>
		<g>
			<path fill="#FFFFFF" stroke="#FF533F" stroke-width="2" stroke-miterlimit="10" d="M34.316,39.584
				c0,0.98-0.796,1.777-1.777,1.777H2.846c-0.982,0-1.778-0.797-1.778-1.777V9.891c0-0.982,0.796-1.778,1.778-1.778h29.693
				c0.981,0,1.777,0.796,1.777,1.778V39.584z"/>
			<path fill="none" stroke="#FF533F" stroke-width="2" stroke-miterlimit="10" d="M34.316,23.482c0,0-24.868,0-26.123,0
				s-3.902,3.034-7.126,6.065"/>
			<path fill="none" stroke="#FF533F" stroke-width="2" stroke-miterlimit="10" d="M1.453,40.676c0,0,3.04-4.689,6.427-5.117
				c5.802-0.732,26.436-0.629,26.436-0.629"/>
			<g>
				<g>
					<path fill="#FF533F" d="M10.596,26.725c0.583,0.58,1.199,1.943,0.739,2.4c-0.459,0.461-1.821-0.156-2.402-0.738
						c-0.583-0.58-0.35-1.092,0.11-1.551C9.503,26.375,10.014,26.143,10.596,26.725z"/>
					<path fill="#FF533F" d="M12.292,31.748c-0.582-0.584-1.198-1.945-0.739-2.402c0.459-0.461,1.821,0.156,2.402,0.738
						c0.581,0.582,0.349,1.092-0.111,1.551C13.385,32.096,12.874,32.328,12.292,31.748z"/>
					<path fill="#FF533F" d="M13.276,29.922c0.172,0.172,0.056,0.568-0.261,0.885l0,0c-0.316,0.318-0.712,0.434-0.884,0.262
						l-2.521-2.518c-0.172-0.174-0.055-0.57,0.262-0.885l0,0c0.316-0.318,0.712-0.434,0.885-0.262L13.276,29.922z"/>
				</g>
				<g>
					<path fill="#FF533F" d="M8.932,30.084c0.582-0.582,1.943-1.199,2.403-0.74c0.459,0.459-0.157,1.82-0.739,2.402
						s-1.093,0.35-1.552-0.111C8.583,31.176,8.35,30.664,8.932,30.084z"/>
					<path fill="#FF533F" d="M13.954,28.387c-0.581,0.582-1.942,1.199-2.402,0.738c-0.459-0.457,0.157-1.82,0.739-2.402
						c0.582-0.58,1.094-0.348,1.553,0.113C14.303,27.295,14.536,27.807,13.954,28.387z"/>
					<path fill="#FF533F" d="M12.13,27.402c0.172-0.172,0.567-0.055,0.885,0.264l0,0c0.315,0.314,0.433,0.711,0.261,0.883
						l-2.519,2.52c-0.173,0.172-0.569,0.055-0.885-0.262l0,0c-0.317-0.316-0.435-0.713-0.262-0.885L12.13,27.402z"/>
				</g>
			</g>
			<g>
				<ellipse fill="#FF533F" cx="23.629" cy="29.768" rx="3.842" ry="3.646"/>
				<path fill="#FF533F" d="M25.328,40.289c0,0.939-0.76,1.699-1.698,1.699l0,0c-0.938,0-1.699-0.76-1.699-1.699v-8.822
					c0-0.939,0.761-1.701,1.699-1.701l0,0c0.938,0,1.698,0.762,1.698,1.701V40.289z"/>
				<path fill="#FFFFFF" d="M23.982,29.414c0,0.193-0.158,0.352-0.353,0.352l0,0c-0.195,0-0.353-0.158-0.353-0.352v-0.289
					c0-0.195,0.158-0.354,0.353-0.354l0,0c0.195,0,0.353,0.158,0.353,0.354V29.414z"/>
			</g>
			<path fill="#FF533F" d="M34.315,28.088l-0.073-0.074c-0.168-0.484-0.473-0.99-0.772-1.291c-0.583-0.58-1.093-0.348-1.553,0.111
				c-0.46,0.461-0.693,0.971-0.111,1.553c0.299,0.299,0.806,0.607,1.29,0.773l0.075,0.074l-0.076,0.076
				c-0.484,0.166-0.99,0.473-1.29,0.771c-0.582,0.582-0.348,1.094,0.112,1.553c0.459,0.459,0.97,0.693,1.553,0.111
				c0.299-0.301,0.604-0.807,0.771-1.289l0.075-0.076L34.315,28.088L34.315,28.088z"/>
		</g>
	</g>
</g>
<g id="レイヤー_2" display="none">
	<g display="inline">
		<path fill="#FF533F" d="M46.183,45.012c0,0.575-0.466,1.041-1.039,1.041h-2.431c-0.572,0-1.039-0.466-1.039-1.041V9.929
			c0-0.574,0.467-1.04,1.039-1.04h2.431c0.573,0,1.039,0.466,1.039,1.04V45.012z"/>
		<g>
			
				<path fill="#FF533F" stroke="#FF533F" stroke-width="2" stroke-linecap="round" stroke-linejoin="round" stroke-miterlimit="10" d="
				M45.377,45.532l-1.445,1.961l-1.452-1.961H45.377z"/>
		</g>
	</g>
	<polygon display="inline" fill="#FF533F" points="9.52,4.757 9.52,0.417 11.48,1.337 13.465,0.393 13.465,4.757 	"/>
	<path display="inline" fill="#FFFFFF" stroke="#FF533F" stroke-width="2" stroke-miterlimit="10" d="M35.432,44.843
		c0,1.438-1.166,2.602-2.603,2.602H6.146V5.217h26.684c1.437,0,2.603,1.165,2.603,2.601V44.843z"/>
	
		<rect x="4.737" y="17.389" display="inline" fill="#FF533F" stroke="#FF533F" stroke-linecap="round" stroke-linejoin="round" stroke-miterlimit="10" width="32.384" height="18.208"/>
	
		<rect x="19.889" y="29.614" display="inline" fill="#FFFFFF" stroke="#FFFFFF" stroke-linecap="round" stroke-linejoin="round" stroke-miterlimit="10" width="12.166" height="3.113"/>
	
		<rect x="28.289" y="4.318" display="inline" fill="#FF533F" stroke="#FF533F" stroke-width="2" stroke-linecap="round" stroke-linejoin="round" stroke-miterlimit="10" width="0.988" height="44.285"/>
	
		<rect x="6.688" y="5.814" display="inline" fill="#FF533F" stroke="#FF533F" stroke-width="2" stroke-linecap="round" stroke-linejoin="round" stroke-miterlimit="10" width="1.43" height="41.63"/>
	<rect x="41.667" y="17.013" display="inline" fill="#FFFFFF" width="4.516" height="1.208"/>
	
		<rect x="42.772" y="8.044" display="inline" fill="#FF533F" stroke="#FF533F" stroke-linecap="round" stroke-linejoin="round" stroke-miterlimit="10" width="2.312" height="1.69"/>
</g>
<g id="レイヤー_3" display="none">
	<g display="inline">
		<path fill="#FF533F" d="M49.731,37.232c0,1.07-0.868,1.938-1.938,1.938H2.207c-1.07,0-1.938-0.868-1.938-1.938V15.018
			c0-1.071,0.868-1.938,1.938-1.938h16.98l2.394-2.052h26.213c1.069,0,1.938,0.867,1.938,1.938V37.232z"/>
		<path fill="#FF533F" d="M7.086,14.622c0,0.466-0.377,0.843-0.843,0.843H4.417c-0.467,0-0.843-0.377-0.843-0.843v-2.95
			c0-0.465,0.376-0.843,0.843-0.843h1.826c0.466,0,0.843,0.378,0.843,0.843V14.622z"/>
		<path fill="#FF533F" d="M16.881,13.1c0,0.442-0.358,0.801-0.801,0.801h-5.208c-0.443,0-0.802-0.358-0.802-0.801v-1.469
			c0-0.442,0.358-0.802,0.802-0.802h5.208c0.442,0,0.801,0.359,0.801,0.802V13.1z"/>
		<circle fill="#FFFFFF" cx="32.309" cy="27.101" r="8.762"/>
		<path fill="#FFFFFF" d="M46.541,16.747c0,0.378-0.307,0.684-0.685,0.684h-4.872c-0.378,0-0.685-0.306-0.685-0.684v-3.562
			c0-0.377,0.307-0.684,0.685-0.684h4.872c0.378,0,0.685,0.307,0.685,0.684V16.747z"/>
		<path fill="#FFFFFF" d="M37.907,16.22c0,0.378-0.307,0.684-0.684,0.684H26.026c-0.379,0-0.684-0.306-0.684-0.684v-2.508
			c0-0.378,0.305-0.685,0.684-0.685h11.197c0.377,0,0.684,0.307,0.684,0.685V16.22z"/>
		<circle fill="#FFFFFF" cx="22.372" cy="33.458" r="1.175"/>
	</g>
</g>
<g id="レイヤー_4">
	<g>
		<path fill="#FF533F" d="M45.407,28.578H4.593V18.151c0-3.023,3.331-5.476,6.009-5.476h28.796c2.678,0,6.009,2.452,6.009,5.476
			V28.578z"/>
		<g>
			<path fill="none" stroke="#FFFFFF" stroke-linecap="round" stroke-linejoin="round" stroke-miterlimit="10" d="M25.787,19.145
				c0,0.533-0.433,0.966-0.966,0.966l0,0c-0.533,0-0.965-0.433-0.965-0.966l0,0c0-0.534,0.432-0.966,0.965-0.966l0,0
				C25.354,18.179,25.787,18.611,25.787,19.145L25.787,19.145z"/>
			<path fill="none" stroke="#FFFFFF" stroke-linecap="round" stroke-linejoin="round" stroke-miterlimit="10" d="M18,19.145
				c0,0.533-0.433,0.966-0.966,0.966l0,0c-0.534,0-0.966-0.433-0.966-0.966l0,0c0-0.534,0.433-0.966,0.966-0.966l0,0
				C17.567,18.179,18,18.611,18,19.145L18,19.145z"/>
			<path fill="none" stroke="#FFFFFF" stroke-linecap="round" stroke-linejoin="round" stroke-miterlimit="10" d="M33.573,19.145
				c0,0.533-0.432,0.966-0.965,0.966l0,0c-0.534,0-0.967-0.433-0.967-0.966l0,0c0-0.534,0.433-0.966,0.967-0.966l0,0
				C33.142,18.179,33.573,18.611,33.573,19.145L33.573,19.145z"/>
		</g>
		<g>
			<path fill="#FF533F" d="M49.925,31.12c0,1.209-0.981,2.191-2.189,2.191H2.265c-1.209,0-2.19-0.982-2.19-2.191v-3.733
				c0-1.21,0.974-2.19,2.184-2.19h45.477c1.208,0,2.189,0.98,2.189,2.19V31.12z"/>
			<path fill="#FF533F" d="M5.449,27.579c0,0.604-1.649,1.095-2.254,1.095H1.17c-0.604,0-1.095-0.49-1.095-1.095V25.84
				c0-0.604,0.491-1.095,1.095-1.095l3.184,0.386c0.604,0,1.094,0.49,1.094,1.095V27.579z"/>
			<path fill="#FF533F" d="M44.552,27.579c0,0.604,1.648,1.095,2.254,1.095h2.023c0.605,0,1.096-0.49,1.096-1.095V25.84
				c0-0.604-0.49-1.095-1.096-1.095l-3.184,0.386c-0.604,0-1.094,0.49-1.094,1.095V27.579z"/>
		</g>
		<g>
			<path fill="#FF533F" d="M6.519,36.628c-0.169,0.526-0.733,0.817-1.261,0.648l0,0c-0.528-0.169-0.818-0.734-0.65-1.261
				l1.129-4.202c0.169-0.529,0.734-0.82,1.263-0.65l0,0c0.527,0.169,0.819,0.732,0.649,1.262L6.519,36.628z"/>
			<path fill="#FF533F" d="M43.481,36.628c0.169,0.526,0.734,0.817,1.261,0.648l0,0c0.528-0.169,0.819-0.734,0.651-1.261
				l-1.13-4.202c-0.169-0.529-0.734-0.82-1.262-0.65l0,0c-0.527,0.169-0.818,0.732-0.65,1.262L43.481,36.628z"/>
		</g>
		<path fill="none" stroke="#FFFFFF" stroke-width="2" stroke-linecap="round" stroke-linejoin="round" stroke-miterlimit="10" d="
			M6.979,26.71c0,0,8.028-2.061,17.957-2.061c9.927,0,18.086,2.061,18.086,2.061"/>
	</g>
</g>
</svg>
