<?xml version="1.0" encoding="utf-8"?>
<!-- Generator: Adobe Illustrator 15.1.0, SVG Export Plug-In . SVG Version: 6.00 Build 0)  -->
<!DOCTYPE svg PUBLIC "-//W3C//DTD SVG 1.1//EN" "http://www.w3.org/Graphics/SVG/1.1/DTD/svg11.dtd">
<svg version="1.1" xmlns="http://www.w3.org/2000/svg" xmlns:xlink="http://www.w3.org/1999/xlink" x="0px" y="0px"
	 width="36.273px" height="29.138px" viewBox="0 0 36.273 29.138" enable-background="new 0 0 36.273 29.138" xml:space="preserve">
<g id="レイヤー_2">
</g>
<g id="レイヤー_1">
	<g>
		<path fill="#FFFFFF" d="M36.273,2.297c0,1.269-1.027,2.297-2.297,2.297H2.297C1.028,4.594,0,3.565,0,2.297l0,0
			C0,1.028,1.028,0,2.297,0h31.68C35.246,0,36.273,1.028,36.273,2.297L36.273,2.297z"/>
		<path fill="#FFFFFF" d="M36.273,14.569c0,1.268-1.027,2.297-2.297,2.297H2.297C1.028,16.866,0,15.837,0,14.569l0,0
			c0-1.27,1.028-2.297,2.297-2.297h31.68C35.246,12.272,36.273,13.3,36.273,14.569L36.273,14.569z"/>
		<path fill="#FFFFFF" d="M36.273,26.841c0,1.269-1.027,2.297-2.297,2.297H2.297C1.028,29.138,0,28.11,0,26.841l0,0
			c0-1.269,1.028-2.297,2.297-2.297h31.68C35.246,24.544,36.273,25.573,36.273,26.841L36.273,26.841z"/>
	</g>
</g>
</svg>
