<?xml version="1.0" encoding="utf-8"?>
<!-- Generator: Adobe Illustrator 15.1.0, SVG Export Plug-In . SVG Version: 6.00 Build 0)  -->
<!DOCTYPE svg PUBLIC "-//W3C//DTD SVG 1.1//EN" "http://www.w3.org/Graphics/SVG/1.1/DTD/svg11.dtd">
<svg version="1.1" xmlns="http://www.w3.org/2000/svg" xmlns:xlink="http://www.w3.org/1999/xlink" x="0px" y="0px"
	 width="14.254px" height="14.254px" viewBox="0 0 14.254 14.254" enable-background="new 0 0 14.254 14.254" xml:space="preserve">
<g id="レイヤー_2">
</g>
<g id="レイヤー_1">
	<g>
		<path fill="#E95341" d="M13.898,0.355c0.474,0.474,0.474,1.241,0,1.715L2.07,13.898c-0.474,0.474-1.241,0.474-1.715,0l0,0
			c-0.473-0.475-0.473-1.242,0-1.715L12.183,0.355C12.657-0.118,13.424-0.118,13.898,0.355L13.898,0.355z"/>
		<path fill="#E95341" d="M0.355,0.355c0.474-0.474,1.242-0.475,1.716,0l11.828,11.828c0.473,0.473,0.473,1.241-0.001,1.715l0,0
			c-0.474,0.474-1.241,0.474-1.715,0L0.355,2.07C-0.119,1.597-0.119,0.829,0.355,0.355L0.355,0.355z"/>
	</g>
</g>
</svg>
