<?xml version="1.0" encoding="utf-8"?>
<!-- Generator: Adobe Illustrator 15.1.0, SVG Export Plug-In . SVG Version: 6.00 Build 0)  -->
<!DOCTYPE svg PUBLIC "-//W3C//DTD SVG 1.1//EN" "http://www.w3.org/Graphics/SVG/1.1/DTD/svg11.dtd">
<svg version="1.1" id="レイヤー_1" xmlns="http://www.w3.org/2000/svg" xmlns:xlink="http://www.w3.org/1999/xlink" x="0px"
	 y="0px" width="90px" height="70px" viewBox="0 0 90 70" enable-background="new 0 0 90 70" xml:space="preserve">
<g>
	<path fill="#FF533F" stroke="#FF533F" stroke-width="0.5" stroke-miterlimit="10" d="M11.25,35.856c-0.1,0-0.202-0.017-0.302-0.049
		l-7.5-2.477c-0.244-0.08-0.428-0.234-0.533-0.443c-0.115-0.228-0.125-0.499-0.031-0.783c0.149-0.451,0.48-0.72,0.887-0.72
		c0.099,0,0.201,0.017,0.302,0.05l7.5,2.476c0.271,0.091,0.472,0.281,0.566,0.538c0.077,0.213,0.074,0.459-0.009,0.709
		C11.989,35.589,11.652,35.856,11.25,35.856z"/>
	<path fill="#FF533F" stroke="#FF533F" stroke-width="0.5" stroke-miterlimit="10" d="M3.594,32.89
		c-0.296-0.097-0.364-0.354-0.269-0.64c0.098-0.296,0.309-0.473,0.604-0.375l7.499,2.476c0.286,0.095,0.361,0.365,0.263,0.661
		c-0.094,0.286-0.312,0.448-0.598,0.354L3.594,32.89z"/>
	<path fill="#FF533F" stroke="#FF533F" stroke-width="0.5" stroke-miterlimit="10" d="M12.963,31.435
		c-0.151,0-0.303-0.041-0.45-0.122l-4.757-2.606c-0.247-0.135-0.406-0.354-0.45-0.613C7.27,27.876,7.317,27.64,7.444,27.41
		c0.181-0.33,0.471-0.521,0.797-0.523c-0.087-0.577,0.031-1.173,0.355-1.766c0.609-1.112,1.451-1.345,2.05-1.345
		c0.465,0,0.957,0.141,1.463,0.417l3.311,1.814c0.248,0.136,0.411,0.355,0.457,0.616c0.039,0.218-0.006,0.452-0.129,0.676
		c-0.188,0.342-0.486,0.538-0.819,0.538c-0.151,0-0.302-0.04-0.447-0.12l-3.125-1.712c-0.274-0.15-0.51-0.227-0.701-0.227
		c-0.157,0-0.36,0.045-0.553,0.396c-0.217,0.396-0.219,0.808-0.006,1.257c0.159,0.342,0.319,0.519,0.613,0.68l2.735,1.499
		c0.469,0.257,0.606,0.784,0.334,1.282C13.521,31.365,13.158,31.435,12.963,31.435z"/>
	<path fill="#FF533F" stroke="#FF533F" stroke-width="0.5" stroke-miterlimit="10" d="M15.197,26.414
		c0.264,0.145,0.284,0.409,0.145,0.663c-0.145,0.264-0.374,0.38-0.637,0.235L11.58,25.6c-0.83-0.455-1.481-0.379-1.882,0.353
		c-0.289,0.527-0.295,1.095-0.018,1.678c0.198,0.427,0.428,0.68,0.809,0.888l2.734,1.498c0.264,0.145,0.289,0.4,0.15,0.654
		c-0.15,0.273-0.373,0.38-0.637,0.235L7.979,28.3C7.726,28.162,7.7,27.906,7.85,27.633c0.139-0.254,0.363-0.36,0.616-0.221
		l0.264,0.145c0.126,0.07,0.208,0.152,0.388,0.264c-0.506-0.722-0.625-1.549-0.116-2.477c0.637-1.163,1.683-1.402,2.884-0.744
		L15.197,26.414z"/>
	<path fill="#FF533F" stroke="#FF533F" stroke-width="0.5" stroke-miterlimit="10" d="M17.353,23.524
		c-0.906,0-1.844-0.415-2.711-1.199c-0.794-0.717-1.279-1.537-1.403-2.371c-0.129-0.873,0.138-1.708,0.774-2.411
		c0.402-0.445,0.856-0.73,1.356-0.854l-1.442-1.302c-0.208-0.188-0.316-0.433-0.307-0.69c0.008-0.222,0.102-0.439,0.271-0.627
		c0.265-0.293,0.537-0.354,0.718-0.354c0.15,0,0.376,0.043,0.604,0.248l5.88,5.312c0.403,0.365,0.411,0.901,0.021,1.334
		c-0.256,0.283-0.524,0.342-0.705,0.342c-0.052,0-0.104-0.005-0.154-0.014c-0.045,0.563-0.292,1.096-0.741,1.592
		C18.925,23.18,18.178,23.524,17.353,23.524z M16.38,18.2c-0.359,0-0.677,0.15-0.945,0.448c-0.267,0.295-0.364,0.631-0.289,1
		c0.083,0.404,0.364,0.832,0.812,1.237c0.515,0.465,1.043,0.721,1.49,0.721l0,0c0.318,0,0.597-0.13,0.83-0.388
		c0.708-0.784,0.187-1.76-0.475-2.358C17.333,18.434,16.827,18.2,16.38,18.2z"/>
	<path fill="#FF533F" stroke="#FF533F" stroke-width="0.5" stroke-miterlimit="10" d="M14.237,15.042
		c-0.223-0.202-0.189-0.456-0.002-0.663c0.209-0.231,0.444-0.275,0.667-0.074l5.88,5.312c0.223,0.202,0.196,0.448-0.013,0.679
		c-0.217,0.24-0.454,0.236-0.627,0.079l-0.173-0.157c-0.091-0.083-0.25-0.256-0.358-0.369c0.325,0.805,0.254,1.597-0.44,2.366
		c-1.091,1.207-2.729,1.109-4.218-0.236c-1.448-1.307-1.702-2.904-0.596-4.128c0.695-0.769,1.477-0.904,2.326-0.663
		c-0.206-0.155-0.46-0.355-0.642-0.52L14.237,15.042z M15.647,21.229c1.083,0.979,2.22,1.134,2.975,0.299
		c0.784-0.869,0.517-2.086-0.508-3.012c-1.009-0.912-2.202-1.088-3.023-0.179C14.335,19.172,14.597,20.279,15.647,21.229z"/>
	<path fill="#FF533F" stroke="#FF533F" stroke-width="0.5" stroke-miterlimit="10" d="M24.185,17.36
		c-1.119,0-2.176-0.641-2.979-1.804c-0.607-0.881-0.876-1.806-0.776-2.675c0.104-0.907,0.601-1.691,1.435-2.266
		C22.458,10.207,23.081,10,23.72,10c1.11,0,2.158,0.635,2.953,1.787c0.608,0.882,0.886,1.809,0.803,2.679
		c-0.087,0.916-0.562,1.695-1.373,2.254C25.487,17.145,24.841,17.36,24.185,17.36z M23.559,11.846c-0.223,0-0.442,0.074-0.653,0.219
		c-0.365,0.252-0.562,0.578-0.583,0.971c-0.024,0.424,0.152,0.923,0.51,1.44c0.455,0.66,1.011,1.038,1.526,1.038h0
		c0.232,0,0.459-0.075,0.676-0.225c0.943-0.65,0.534-1.666,0.025-2.404C24.604,12.225,24.057,11.846,23.559,11.846z"/>
	<path fill="#FF533F" stroke="#FF533F" stroke-width="0.5" stroke-miterlimit="10" d="M26.291,12.049
		c1.101,1.595,0.979,3.302-0.451,4.289c-1.513,1.043-3.126,0.587-4.252-1.045c-1.094-1.585-0.945-3.271,0.54-4.296
		C23.595,9.985,25.19,10.454,26.291,12.049z M22.45,14.739c0.803,1.165,1.903,1.583,2.848,0.931c1-0.689,0.984-1.829,0.143-3.049
		c-0.796-1.155-1.863-1.583-2.798-0.938C21.652,12.367,21.609,13.52,22.45,14.739z"/>
	<path fill="#FF533F" stroke="#FF533F" stroke-width="0.5" stroke-miterlimit="10" d="M32.129,13.092
		c-1.394,0-2.552-0.918-3.178-2.52c-0.39-0.997-0.438-1.959-0.142-2.783c0.311-0.859,0.973-1.508,1.917-1.877
		c0.427-0.167,0.854-0.252,1.27-0.252c1.377,0,2.522,0.91,3.142,2.495c0.391,0.999,0.448,1.964,0.168,2.793
		c-0.295,0.872-0.936,1.521-1.854,1.88C33.004,13.003,32.56,13.092,32.129,13.092z M31.857,7.472c-0.145,0-0.297,0.031-0.451,0.09
		c-0.413,0.162-0.679,0.435-0.791,0.812c-0.121,0.408-0.063,0.934,0.166,1.519c0.345,0.883,0.89,1.39,1.495,1.39l0,0
		c0.15,0,0.306-0.031,0.465-0.093c1.066-0.417,0.901-1.5,0.575-2.335C32.973,7.977,32.441,7.472,31.857,7.472z"/>
	<path fill="#FF533F" stroke="#FF533F" stroke-width="0.5" stroke-miterlimit="10" d="M34.707,8.324
		c0.706,1.806,0.196,3.44-1.423,4.072c-1.712,0.669-3.179-0.146-3.9-1.993c-0.701-1.795-0.169-3.403,1.512-4.059
		C32.555,5.696,34.001,6.519,34.707,8.324z M30.35,10.062c0.515,1.318,1.49,1.977,2.559,1.56c1.131-0.442,1.378-1.555,0.839-2.936
		c-0.511-1.307-1.452-1.969-2.51-1.555C30.117,7.569,29.811,8.682,30.35,10.062z"/>
	<path fill="#FF533F" stroke="#FF533F" stroke-width="0.5" stroke-miterlimit="10" d="M39.409,10.937
		c-0.474,0-0.831-0.296-0.907-0.753l-0.893-5.352c-0.046-0.278,0.026-0.538,0.204-0.733c0.148-0.163,0.363-0.272,0.623-0.315
		c0.066-0.011,0.132-0.017,0.196-0.017c0.276,0,0.513,0.101,0.677,0.273c0.3-0.312,0.705-0.558,1.211-0.661
		c0.066-0.021,0.162-0.038,0.256-0.054c0.131-0.022,0.243-0.03,0.359-0.03c0.06,0,0.19,0.006,0.191,0.006
		c0.452,0,0.776,0.278,0.849,0.725c0.013,0.073,0.016,0.169,0.016,0.266c-0.01,0.503-0.309,0.884-0.744,0.957l-0.039,0.006
		l-0.109,0.007c-0.033,0-0.065-0.001-0.099-0.007l-0.135-0.001c-0.074,0-0.155,0.005-0.257,0.022
		c-0.28,0.053-0.506,0.235-0.679,0.554c-0.19,0.334-0.256,0.662-0.207,1.01l0.504,3.022c0.088,0.528-0.242,0.962-0.802,1.056
		C39.55,10.931,39.478,10.937,39.409,10.937z"/>
	<path fill="#FF533F" stroke="#FF533F" stroke-width="0.5" stroke-miterlimit="10" d="M38.066,4.755
		c-0.047-0.285,0.137-0.463,0.445-0.515c0.275-0.045,0.518,0.061,0.566,0.346l0.041,0.242c0.025,0.154,0.012,0.348,0.021,0.528
		c0.087-0.557,0.534-1.332,1.474-1.522c0.086-0.026,0.163-0.039,0.24-0.051c0.165-0.027,0.289-0.026,0.449-0.019
		c0.258-0.009,0.383,0.128,0.417,0.337c0.01,0.054,0.01,0.122,0.01,0.19c-0.005,0.237-0.126,0.461-0.357,0.5
		c-0.033,0.005-0.066,0.011-0.101,0.005c-0.16-0.007-0.308-0.017-0.538,0.022c-0.471,0.09-0.793,0.392-1.009,0.79
		c-0.227,0.399-0.324,0.833-0.258,1.297l0.506,3.033c0.05,0.297-0.146,0.477-0.421,0.522c-0.308,0.051-0.54-0.057-0.59-0.354
		L38.066,4.755z"/>
	<path fill="#FF533F" stroke="#FF533F" stroke-width="0.5" stroke-miterlimit="10" d="M56.656,11.48
		c-0.059,0-0.121-0.006-0.184-0.018l-4.195-0.833c-0.523-0.104-0.881-0.315-1.094-0.646c-0.211-0.327-0.26-0.749-0.152-1.29
		l1.379-6.938C52.502,1.29,52.854,1,53.324,1c0.08,0,0.162,0.008,0.248,0.025c0.299,0.059,0.531,0.203,0.674,0.416
		c0.092,0.138,0.188,0.37,0.123,0.693l-1.326,6.678L56.85,9.57c0.521,0.104,0.822,0.573,0.715,1.114
		C57.473,11.153,57.1,11.48,56.656,11.48z"/>
	<path fill="#FF533F" stroke="#FF533F" stroke-width="0.5" stroke-miterlimit="10" d="M52.863,1.845
		c0.066-0.328,0.322-0.424,0.617-0.365c0.307,0.061,0.498,0.246,0.434,0.563l-1.342,6.753c-0.049,0.251,0.068,0.411,0.318,0.46
		l3.869,0.768c0.283,0.057,0.404,0.297,0.352,0.57c-0.053,0.262-0.264,0.47-0.549,0.414l-4.195-0.833
		c-0.775-0.154-1.047-0.56-0.881-1.391L52.863,1.845z"/>
	<path fill="#FF533F" stroke="#FF533F" stroke-width="0.5" stroke-miterlimit="10" d="M60.338,12.905
		c-0.137,0-0.281-0.029-0.424-0.086c-0.348-0.138-0.5-0.354-0.566-0.511c-0.064-0.147-0.115-0.388,0.006-0.691l2.004-5.042
		c0.141-0.354,0.441-0.565,0.805-0.565c0.135,0,0.277,0.029,0.424,0.087c0.277,0.11,0.477,0.291,0.576,0.522
		c0.09,0.21,0.09,0.443-0.002,0.674l-2.002,5.041C61.014,12.692,60.709,12.905,60.338,12.905z M63.08,6.108
		c-0.154,0-0.305-0.03-0.451-0.087c-0.307-0.121-0.545-0.35-0.674-0.644c-0.129-0.297-0.133-0.631-0.01-0.942
		c0.184-0.463,0.623-0.762,1.119-0.762c0.158,0,0.312,0.03,0.463,0.089c0.631,0.251,0.928,0.941,0.676,1.572
		C64.016,5.804,63.576,6.108,63.08,6.108z"/>
	<path fill="#FF533F" stroke="#FF533F" stroke-width="0.5" stroke-miterlimit="10" d="M61.789,6.747
		c0.105-0.269,0.336-0.333,0.627-0.218c0.277,0.11,0.422,0.323,0.314,0.593l-2.004,5.042c-0.111,0.28-0.361,0.336-0.641,0.225
		c-0.289-0.115-0.414-0.319-0.301-0.599L61.789,6.747z M63.773,5.162c-0.16,0.404-0.59,0.58-0.973,0.429
		c-0.395-0.157-0.586-0.581-0.426-0.984c0.156-0.394,0.586-0.57,0.98-0.414C63.738,4.345,63.93,4.769,63.773,5.162z"/>
	<path fill="#FF533F" stroke="#FF533F" stroke-width="0.5" stroke-miterlimit="10" d="M66.047,15.764
		c-0.211,0-0.418-0.063-0.631-0.193c-0.57-0.348-0.613-0.854-0.549-1.216l0.967-5.506c0.033-0.145,0.07-0.242,0.123-0.329
		c0.168-0.271,0.457-0.432,0.775-0.432c0.096,0,0.193,0.015,0.287,0.043c0.105,0.029,0.219,0.077,0.316,0.136
		c0.354,0.218,0.514,0.588,0.428,0.992c0,0-0.729,3.672-0.729,3.678c0.021-0.018,2.939-2.322,2.939-2.322
		c0.193-0.146,0.391-0.216,0.596-0.216c0.168,0,0.328,0.048,0.48,0.141c0.092,0.056,0.174,0.125,0.262,0.218
		c0.307,0.342,0.361,0.765,0.148,1.11c-0.076,0.123-0.172,0.219-0.289,0.291l-4.434,3.354
		C66.523,15.679,66.289,15.764,66.047,15.764z"/>
	<path fill="#FF533F" stroke="#FF533F" stroke-width="0.5" stroke-miterlimit="10" d="M70.262,10.979
		c0.191-0.144,0.377-0.148,0.549-0.043c0.057,0.035,0.105,0.079,0.162,0.139c0.154,0.173,0.203,0.373,0.094,0.553
		c-0.029,0.047-0.074,0.099-0.139,0.139l-4.469,3.378c-0.295,0.225-0.555,0.182-0.803,0.031c-0.256-0.157-0.396-0.374-0.332-0.738
		l0.967-5.508c0.016-0.069,0.035-0.122,0.064-0.169c0.109-0.181,0.32-0.248,0.531-0.185c0.078,0.021,0.15,0.053,0.207,0.088
		c0.17,0.104,0.266,0.268,0.217,0.499l-0.729,3.668c-0.084,0.393-0.283,1.146-0.416,1.535c0.301-0.299,0.895-0.864,1.215-1.111
		L70.262,10.979z"/>
	<path fill="#FF533F" stroke="#FF533F" stroke-width="0.5" stroke-miterlimit="10" d="M71.037,19.486
		c-0.232,0-0.465-0.096-0.67-0.275c-0.434-0.38-0.484-0.91-0.127-1.319l3.57-4.082c0.23-0.261,0.484-0.316,0.658-0.316
		c0.158,0,0.402,0.048,0.66,0.275c0.225,0.197,0.352,0.434,0.369,0.685c0.014,0.229-0.064,0.448-0.227,0.634l-3.57,4.082
		C71.521,19.374,71.287,19.486,71.037,19.486z M75.99,14.013c-0.291,0-0.574-0.107-0.797-0.302
		c-0.514-0.451-0.564-1.208-0.113-1.722c0.23-0.264,0.559-0.415,0.904-0.415c0.295,0,0.584,0.109,0.811,0.309
		c0.246,0.214,0.393,0.51,0.414,0.831c0.02,0.32-0.086,0.631-0.301,0.876C76.674,13.858,76.338,14.013,75.99,14.013z"/>
	<path fill="#FF533F" stroke="#FF533F" stroke-width="0.5" stroke-miterlimit="10" d="M74.16,14.115
		c0.191-0.218,0.43-0.203,0.664,0.003c0.225,0.198,0.291,0.446,0.098,0.664l-3.57,4.083c-0.197,0.226-0.453,0.195-0.678-0.002
		c-0.234-0.206-0.283-0.439-0.086-0.665L74.16,14.115z M76.561,13.284c-0.285,0.327-0.752,0.35-1.061,0.079
		c-0.318-0.279-0.357-0.742-0.072-1.069c0.279-0.319,0.744-0.341,1.062-0.063C76.799,12.502,76.838,12.965,76.561,13.284z"/>
	<path fill="#FF533F" stroke="#FF533F" stroke-width="0.5" stroke-miterlimit="10" d="M76.865,25.86
		c-0.283,0-0.553-0.142-0.758-0.399c-0.365-0.454-0.326-0.989,0.098-1.329l2.783-2.231c0.287-0.231,0.463-0.458,0.51-0.658
		c0.025-0.112,0.033-0.292-0.186-0.565c-0.266-0.331-0.613-0.491-1.064-0.491l-0.096,0.002c-0.379,0.016-0.602,0.096-0.863,0.306
		l-2.436,1.952c-0.17,0.137-0.365,0.209-0.564,0.209c-0.279,0-0.545-0.14-0.748-0.394c-0.236-0.293-0.264-0.561-0.244-0.733
		c0.018-0.161,0.09-0.394,0.342-0.596l4.234-3.396c0.164-0.132,0.355-0.203,0.553-0.203c0.281,0,0.555,0.146,0.766,0.412
		c0.18,0.222,0.26,0.47,0.234,0.714c-0.008,0.077-0.027,0.15-0.055,0.221c0.568,0.14,1.068,0.477,1.494,1.007
		c0.486,0.608,0.693,1.265,0.6,1.901c-0.094,0.624-0.461,1.197-1.092,1.702l-2.945,2.364C77.258,25.788,77.064,25.86,76.865,25.86z"
		/>
	<path fill="#FF533F" stroke="#FF533F" stroke-width="0.5" stroke-miterlimit="10" d="M77.137,25.292
		c-0.234,0.188-0.488,0.104-0.668-0.121c-0.189-0.235-0.207-0.491,0.027-0.679l2.781-2.231c0.74-0.593,0.918-1.223,0.396-1.875
		c-0.377-0.47-0.898-0.694-1.545-0.662c-0.469,0.02-0.791,0.135-1.129,0.407l-2.436,1.952c-0.236,0.189-0.48,0.114-0.662-0.112
		c-0.195-0.243-0.207-0.49,0.027-0.678l4.234-3.396c0.225-0.182,0.471-0.107,0.666,0.136c0.182,0.226,0.193,0.473-0.033,0.654
		l-0.232,0.188c-0.115,0.09-0.223,0.134-0.395,0.258c0.861-0.19,1.67,0.018,2.334,0.843c0.83,1.035,0.648,2.093-0.42,2.951
		L77.137,25.292z"/>
	<path fill="#FF533F" stroke="#FF533F" stroke-width="0.5" stroke-miterlimit="10" d="M79.66,33.788
		c-1.162,0.001-2.061-0.653-2.67-1.941c-0.67-1.409-0.461-2.397-0.168-2.978c0.109-0.195,0.234-0.317,0.395-0.395
		c0.125-0.058,0.254-0.086,0.391-0.086c0.16,0,0.324,0.041,0.471,0.119c0.191,0.102,0.352,0.267,0.441,0.455
		c0.111,0.238,0.117,0.499,0.016,0.735c-0.211,0.473-0.201,0.876,0.027,1.354c0.357,0.758,0.717,0.862,1.051,0.862
		c0.166,0,0.355-0.031,0.572-0.095c-0.396-0.26-0.715-0.638-0.945-1.125c-0.795-1.674-0.031-3.47,1.855-4.366
		c0.67-0.317,1.322-0.478,1.939-0.478c1.225,0,2.197,0.628,2.738,1.768c0.26,0.545,0.332,1.104,0.225,1.632
		c0.309,0.028,0.574,0.231,0.732,0.566c0.145,0.303,0.121,0.545,0.078,0.695c-0.049,0.166-0.176,0.394-0.494,0.546l-4.66,2.212
		C80.924,33.612,80.254,33.788,79.66,33.788z M83.096,27.788c-0.346,0-0.746,0.104-1.162,0.301c-0.992,0.472-1.41,1.248-1.064,1.979
		c0.277,0.583,0.789,0.706,1.17,0.706l0,0c0.342,0,0.73-0.098,1.119-0.283c0.795-0.378,1.494-1.102,1.066-2.002
		C84.004,28.023,83.625,27.788,83.096,27.788z"/>
	<path fill="#FF533F" stroke="#FF533F" stroke-width="0.5" stroke-miterlimit="10" d="M85.744,29.751
		c0.211-0.1,0.43-0.031,0.568,0.261c0.129,0.272,0.074,0.495-0.197,0.624l-4.66,2.212c-2.316,1.099-3.418,0.129-4.047-1.199
		c-0.518-1.087-0.484-1.954-0.174-2.571c0.047-0.083,0.105-0.147,0.186-0.186c0.131-0.062,0.295-0.053,0.441,0.024
		c0.1,0.052,0.191,0.143,0.24,0.244c0.051,0.111,0.059,0.23,0.008,0.354c-0.256,0.578-0.258,1.122,0.035,1.735
		c0.596,1.258,1.445,1.41,2.939,0.713c0.121-0.057,0.352-0.142,0.502-0.188c-0.793-0.031-1.508-0.395-1.928-1.281
		c-0.678-1.429-0.043-2.951,1.637-3.749c1.732-0.821,3.324-0.48,4.061,1.07c0.436,0.916,0.205,1.729-0.307,2.316
		c0.105-0.062,0.283-0.184,0.393-0.236L85.744,29.751z M81.734,27.67c-1.277,0.607-1.729,1.659-1.283,2.595
		c0.486,1.027,1.658,1.235,2.906,0.644c1.199-0.569,1.773-1.594,1.285-2.62C84.156,27.261,83.033,27.054,81.734,27.67z"/>
</g>
<circle fill="#FF533F" cx="45.854" cy="41.881" r="26.515"/>
<g>
	<defs>
		<circle id="SVGID_1_" cx="45.854" cy="41.881" r="26.515"/>
	</defs>
	<clipPath id="SVGID_2_">
		<use xlink:href="#SVGID_1_"  overflow="visible"/>
	</clipPath>
	<g clip-path="url(#SVGID_2_)">
		
			<polyline fill="none" stroke="#FFFFFF" stroke-width="2" stroke-linecap="round" stroke-linejoin="round" stroke-miterlimit="10" points="
			18.571,58.707 40.22,58.707 40.22,41.559 31.832,41.559 57.938,24.35 57.938,24.35 84.043,41.559 75.654,41.559 75.654,58.707 
			97.303,58.707 		"/>
		<path fill="none" stroke="#FFFFFF" stroke-width="2" stroke-linecap="round" stroke-linejoin="round" stroke-miterlimit="10" d="
			M56.922,58.707V48.76c0-2.803-2.271-5.074-5.076-5.074l0,0c-2.801,0-5.074,2.271-5.074,5.074v9.947H56.922z"/>
	</g>
</g>
</svg>
