<?xml version="1.0" encoding="utf-8"?>
<!-- Generator: Adobe Illustrator 15.1.0, SVG Export Plug-In . SVG Version: 6.00 Build 0)  -->
<!DOCTYPE svg PUBLIC "-//W3C//DTD SVG 1.1//EN" "http://www.w3.org/Graphics/SVG/1.1/DTD/svg11.dtd">
<svg version="1.1" xmlns="http://www.w3.org/2000/svg" xmlns:xlink="http://www.w3.org/1999/xlink" x="0px" y="0px"
	 width="166.927px" height="23.316px" viewBox="0 0 166.927 23.316" enable-background="new 0 0 166.927 23.316"
	 xml:space="preserve">
<g id="レイヤー_2">
</g>
<g id="レイヤー_1">
	<g>
		<g>
			<path fill="#FFFFFF" d="M0,0.948c0-0.632,0.451-0.925,1.061-0.925c0.632,0,1.106,0.293,1.106,0.925v16
				c0,0.609-0.474,0.925-1.106,0.925C0.451,17.874,0,17.558,0,16.948V0.948z"/>
			<path fill="#FFFFFF" d="M1.061,18.374c-0.934,0-1.561-0.573-1.561-1.425v-16c0-0.866,0.612-1.425,1.561-1.425
				c0.976,0,1.606,0.56,1.606,1.425v16C2.667,17.801,2.021,18.374,1.061,18.374z M1.061,0.522C0.5,0.522,0.5,0.81,0.5,0.948v16
				c0,0.105,0,0.425,0.561,0.425c0.402,0,0.606-0.143,0.606-0.425v-16C1.667,0.832,1.667,0.522,1.061,0.522z"/>
		</g>
		<g>
			<path fill="#FFFFFF" d="M18.393,16.971c0,0.609-0.451,0.903-1.038,0.903c-0.609,0-1.038-0.293-1.038-0.903V9.749
				c0-1.918-0.767-3.001-2.46-3.001c-1.219,0-2.234,0.542-3.001,1.603c-0.564,0.767-0.79,1.421-0.79,2.302v6.319
				c0,0.609-0.429,0.903-1.015,0.903c-0.632,0-1.038-0.293-1.038-0.903V5.98c0-0.587,0.429-0.88,1.061-0.88
				c0.587,0,0.993,0.293,0.993,0.88v0.609c0,0.293-0.067,0.519-0.09,0.948c0.79-1.603,2.144-2.618,4.288-2.618
				c2.686,0,4.13,1.625,4.13,4.401V16.971z"/>
			<path fill="#FFFFFF" d="M17.355,18.374c-0.935,0-1.538-0.551-1.538-1.403V9.749c0-2.242-1.119-2.501-1.96-2.501
				c-1.053,0-1.926,0.47-2.596,1.396c-0.507,0.69-0.695,1.234-0.695,2.009v6.319c0,0.839-0.609,1.403-1.515,1.403
				c-0.949,0-1.538-0.538-1.538-1.403V5.98c0-0.838,0.613-1.38,1.561-1.38c0.854,0,1.423,0.48,1.487,1.236
				c0.931-0.942,2.17-1.417,3.704-1.417c2.942,0,4.63,1.786,4.63,4.901v7.65C18.893,17.81,18.275,18.374,17.355,18.374z
				 M13.857,6.248c1.105,0,2.96,0.455,2.96,3.501v7.222c0,0.131,0,0.403,0.538,0.403s0.538-0.292,0.538-0.403V9.32
				c0-1.78-0.63-3.901-3.63-3.901c-1.808,0-3.063,0.765-3.839,2.339L9.349,9.94l0.127-2.429c0.012-0.225,0.035-0.397,0.056-0.552
				c0.017-0.129,0.034-0.242,0.034-0.37V5.98c0-0.133,0-0.38-0.493-0.38c-0.561,0-0.561,0.257-0.561,0.38v10.99
				c0,0.161,0,0.403,0.538,0.403c0.515,0,0.515-0.272,0.515-0.403v-6.319c0-0.988,0.257-1.741,0.887-2.598
				C11.307,6.873,12.485,6.248,13.857,6.248z"/>
		</g>
		<g>
			<path fill="#FFFFFF" d="M32.68,0.925c0-0.609,0.429-0.903,0.993-0.903c0.632,0,1.016,0.293,1.016,0.903v16.045
				c0,0.609-0.406,0.903-1.038,0.903c-0.654,0-0.97-0.361-0.97-0.835v-0.474c0-0.248,0.045-0.722,0.067-1.038
				c-0.767,1.58-2.054,2.55-4.152,2.55c-3.295,0-5.371-2.595-5.371-6.658c0-3.949,2.054-6.5,5.394-6.5
				c2.099,0,3.363,0.993,4.152,2.595c-0.045-0.519-0.09-1.173-0.09-1.67V0.925z M25.3,11.441c0,2.957,1.309,4.875,3.588,4.875
				c2.37,0,3.836-2.054,3.836-4.852c0-2.753-1.354-4.785-3.836-4.785C26.609,6.68,25.3,8.576,25.3,11.441z"/>
			<path fill="#FFFFFF" d="M28.595,18.577c-3.566,0-5.871-2.81-5.871-7.158c0-4.252,2.313-7,5.894-7
				c1.484,0,2.662,0.451,3.562,1.371V0.925c0-0.839,0.6-1.403,1.493-1.403c0.935,0,1.516,0.538,1.516,1.403v16.045
				c0,0.865-0.589,1.403-1.538,1.403c-0.933,0-1.392-0.565-1.461-1.172C31.288,18.115,30.085,18.577,28.595,18.577z M28.618,5.419
				c-3.019,0-4.894,2.299-4.894,6c0,3.798,1.867,6.158,4.871,6.158c1.774,0,2.951-0.721,3.703-2.269l1.132-2.332l-0.206,2.871
				c-0.021,0.259-0.044,0.545-0.044,0.717v0.474c0,0.1,0,0.335,0.47,0.335c0.538,0,0.538-0.242,0.538-0.403V0.925
				c0-0.18,0-0.403-0.516-0.403c-0.493,0-0.493,0.282-0.493,0.403v4.919c0,0.394,0.031,0.971,0.088,1.627l0.229,2.65l-1.176-2.386
				C31.543,6.155,30.366,5.419,28.618,5.419z M28.889,16.816c-2.522,0-4.088-2.06-4.088-5.375c0-3.246,1.566-5.262,4.088-5.262
				c2.634,0,4.336,2.074,4.336,5.285C33.225,14.666,31.482,16.816,28.889,16.816z M28.889,7.18c-1.934,0-3.088,1.593-3.088,4.262
				c0,2.739,1.154,4.375,3.088,4.375c1.996,0,3.336-1.749,3.336-4.352C32.225,9.393,31.349,7.18,28.889,7.18z"/>
		</g>
		<g>
			<path fill="#FFFFFF" d="M51.164,11.464c0,3.927-2.167,6.635-5.687,6.635c-3.724,0-5.89-2.618-5.89-6.635
				c0-3.904,2.189-6.545,5.845-6.545C49.042,4.919,51.164,7.538,51.164,11.464z M41.663,11.532c0,2.866,1.354,4.83,3.679,4.83
				c2.459,0,3.746-1.918,3.746-4.92c0-2.843-1.287-4.784-3.588-4.784C43.062,6.657,41.663,8.53,41.663,11.532z"/>
			<path fill="#FFFFFF" d="M45.477,18.599c-3.941,0-6.39-2.734-6.39-7.135c0-4.28,2.491-7.045,6.345-7.045
				c3.786,0,6.232,2.765,6.232,7.045C51.664,15.732,49.178,18.599,45.477,18.599z M45.432,5.419c-3.297,0-5.345,2.316-5.345,6.045
				c0,3.841,2.015,6.135,5.39,6.135c3.151,0,5.187-2.408,5.187-6.135C50.664,7.736,48.659,5.419,45.432,5.419z M45.342,16.861
				c-2.539,0-4.179-2.092-4.179-5.33c0-3.315,1.662-5.375,4.336-5.375c2.522,0,4.088,2.025,4.088,5.284
				C49.588,14.835,48,16.861,45.342,16.861z M45.5,7.157c-2.12,0-3.336,1.594-3.336,4.375c0,2.67,1.218,4.33,3.179,4.33
				c2.824,0,3.246-2.769,3.246-4.42C48.588,8.759,47.434,7.157,45.5,7.157z"/>
		</g>
		<g>
			<path fill="#FFFFFF" d="M67.03,11.464c0,3.927-2.167,6.635-5.687,6.635c-3.724,0-5.89-2.618-5.89-6.635
				c0-3.904,2.189-6.545,5.845-6.545C64.909,4.919,67.03,7.538,67.03,11.464z M57.529,11.532c0,2.866,1.354,4.83,3.679,4.83
				c2.459,0,3.746-1.918,3.746-4.92c0-2.843-1.287-4.784-3.588-4.784C58.929,6.657,57.529,8.53,57.529,11.532z"/>
			<path fill="#FFFFFF" d="M61.343,18.599c-3.941,0-6.39-2.734-6.39-7.135c0-4.28,2.491-7.045,6.345-7.045
				c3.786,0,6.232,2.765,6.232,7.045C67.53,15.732,65.044,18.599,61.343,18.599z M61.298,5.419c-3.297,0-5.345,2.316-5.345,6.045
				c0,3.841,2.015,6.135,5.39,6.135c3.151,0,5.187-2.408,5.187-6.135C66.53,7.736,64.525,5.419,61.298,5.419z M61.208,16.861
				c-2.539,0-4.179-2.092-4.179-5.33c0-3.315,1.662-5.375,4.336-5.375c2.522,0,4.088,2.025,4.088,5.284
				C65.454,14.835,63.867,16.861,61.208,16.861z M61.366,7.157c-2.12,0-3.336,1.594-3.336,4.375c0,2.67,1.218,4.33,3.179,4.33
				c2.824,0,3.246-2.769,3.246-4.42C64.454,8.759,63.3,7.157,61.366,7.157z"/>
		</g>
		<g>
			<path fill="#FFFFFF" d="M72.222,5.98c0-0.587,0.429-0.88,1.061-0.88c0.564,0,1.016,0.293,1.016,0.88v0.496
				c0,0.316-0.09,0.7-0.136,1.061c0.361-1.083,1.512-2.482,3.453-2.55c0.181-0.022,0.338-0.022,0.497-0.022
				c0.338,0,0.586,0.045,0.902,0.113c0.519,0.067,0.722,0.384,0.722,0.812c0,0.113-0.022,0.248-0.045,0.383
				c-0.09,0.474-0.406,0.88-0.88,0.88c-0.067,0-0.135,0-0.203-0.022C78.292,7.063,78,6.996,77.525,6.996
				c-0.97,0.023-1.715,0.519-2.279,1.241c-0.587,0.722-0.925,1.558-0.948,2.505v6.229c0,0.609-0.452,0.903-1.016,0.903
				c-0.632,0-1.061-0.293-1.061-0.903V5.98z"/>
			<path fill="#FFFFFF" d="M73.283,18.374c-0.948,0-1.561-0.551-1.561-1.403V5.98c0-0.838,0.613-1.38,1.561-1.38
				c0.78,0,1.354,0.434,1.486,1.085c0.691-0.669,1.65-1.156,2.829-1.197c0.159-0.022,0.336-0.023,0.514-0.023
				c0.398,0,0.692,0.056,1.007,0.124c0.685,0.087,1.117,0.576,1.117,1.301c0,0.137-0.024,0.301-0.052,0.465
				c-0.148,0.781-0.7,1.298-1.374,1.298c-0.086,0-0.216,0-0.361-0.048c-0.277-0.056-0.526-0.11-0.925-0.11
				c-0.727,0.018-1.348,0.36-1.885,1.049c-0.542,0.667-0.823,1.408-0.842,2.209v6.217C74.798,17.81,74.189,18.374,73.283,18.374z
				 M73.283,5.6c-0.561,0-0.561,0.257-0.561,0.38v10.99c0,0.141,0,0.403,0.561,0.403c0.516,0,0.516-0.292,0.516-0.403v-6.229
				c0.024-1.041,0.381-1.985,1.06-2.821c0.718-0.919,1.613-1.401,2.656-1.426c0,0,0.001,0,0.001,0c0.517,0,0.842,0.07,1.156,0.138
				l0.14,0.021c0.236,0,0.355-0.298,0.389-0.474c0.016-0.095,0.036-0.201,0.036-0.29c0-0.222-0.059-0.287-0.287-0.317
				c-0.378-0.08-0.592-0.114-0.877-0.108c-0.125,0-0.252,0.001-0.396,0.019C75.829,5.55,74.9,6.905,74.637,7.696l-0.97-0.221
				c0.016-0.13,0.038-0.263,0.06-0.394c0.035-0.212,0.072-0.421,0.072-0.604V5.98C73.798,5.728,73.625,5.6,73.283,5.6z"/>
		</g>
		<g>
			<path fill="#FFFFFF" d="M94.092,0.993c0-0.677,0.474-0.97,1.083-0.97c0.632,0,1.083,0.293,1.083,0.948v13.947
				c0,0.519,0.294,0.79,0.812,0.79h7.989c0.587,0,0.925,0.429,0.925,0.993c0,0.542-0.338,1.039-0.925,1.039h-8.666
				c-1.603,0-2.302-0.7-2.302-2.415V0.993z"/>
			<path fill="#FFFFFF" d="M105.06,18.238h-8.666c-1.886,0-2.802-0.954-2.802-2.915V0.993c0-0.893,0.622-1.47,1.583-1.47
				c0.961,0,1.583,0.568,1.583,1.448v13.947c0,0.218,0.045,0.29,0.312,0.29h7.989c0.839,0,1.425,0.614,1.425,1.493
				C106.485,17.577,105.873,18.238,105.06,18.238z M95.175,0.522c-0.583,0-0.583,0.317-0.583,0.47v14.331
				c0,1.432,0.455,1.915,1.802,1.915h8.666c0.335,0,0.425-0.338,0.425-0.539c0-0.225-0.074-0.493-0.425-0.493h-7.989
				c-0.797,0-1.312-0.506-1.312-1.29V0.97C95.758,0.814,95.758,0.522,95.175,0.522z"/>
		</g>
		<g>
			<path fill="#FFFFFF" d="M112.711,1.512c0,0.88-0.677,1.535-1.512,1.535c-0.857,0-1.535-0.654-1.535-1.535
				c0-0.857,0.678-1.512,1.535-1.512C112.035,0,112.711,0.654,112.711,1.512z M110.162,5.98c0-0.587,0.384-0.88,1.016-0.88
				c0.609,0,1.038,0.293,1.038,0.88v10.99c0,0.609-0.429,0.903-1.038,0.903c-0.632,0-1.016-0.293-1.016-0.903V5.98z"/>
			<path fill="#FFFFFF" d="M111.177,18.374c-0.935,0-1.516-0.538-1.516-1.403V5.98c0-0.852,0.581-1.38,1.516-1.38
				c0.935,0,1.538,0.542,1.538,1.38v10.99C112.715,17.823,112.112,18.374,111.177,18.374z M111.177,5.6
				c-0.516,0-0.516,0.22-0.516,0.38v10.99c0,0.18,0,0.403,0.516,0.403c0.538,0,0.538-0.272,0.538-0.403V5.98
				C111.715,5.867,111.715,5.6,111.177,5.6z M111.2,3.546c-1.141,0-2.035-0.894-2.035-2.035c0-1.128,0.894-2.012,2.035-2.012
				c1.128,0,2.012,0.884,2.012,2.012C113.211,2.653,112.328,3.546,111.2,3.546z M111.2,0.5c-0.59,0-1.035,0.435-1.035,1.012
				c0,0.59,0.445,1.035,1.035,1.035c0.577,0,1.012-0.445,1.012-1.035C112.211,0.944,111.767,0.5,111.2,0.5z"/>
		</g>
		<g>
			<path fill="#FFFFFF" d="M125.824,5.754c0.181-0.451,0.497-0.654,0.903-0.654c0.135,0,0.271,0.022,0.429,0.068
				c0.451,0.135,0.744,0.429,0.744,0.857c0,0.113-0.022,0.248-0.09,0.384l-4.152,10.562c-0.271,0.7-0.768,0.903-1.354,0.903
				c-0.609,0-1.083-0.226-1.354-0.925l-4.153-10.539c-0.045-0.136-0.067-0.249-0.067-0.361c0-0.429,0.293-0.767,0.723-0.88
				c0.157-0.045,0.315-0.068,0.451-0.068c0.406,0,0.744,0.181,0.902,0.632l2.618,7.109c0.271,0.768,0.722,2.279,0.902,3.092
				c0.203-0.835,0.632-2.438,0.926-3.205L125.824,5.754z"/>
			<path fill="#FFFFFF" d="M122.303,18.374c-0.888,0-1.5-0.419-1.82-1.245l-4.152-10.536c-0.073-0.217-0.102-0.382-0.102-0.544
				c0-0.644,0.44-1.191,1.096-1.363c0.187-0.054,0.391-0.084,0.578-0.084c0.658,0,1.159,0.352,1.374,0.966l2.616,7.102
				c0.12,0.341,0.275,0.827,0.428,1.334c0.159-0.556,0.325-1.09,0.464-1.453l2.57-6.968c0.328-0.818,1.001-1.163,1.939-0.894
				c0.694,0.208,1.106,0.708,1.106,1.338c0,0.209-0.049,0.419-0.142,0.606l-4.135,10.522
				C123.809,17.962,123.197,18.374,122.303,18.374z M117.903,5.6c-0.094,0-0.205,0.017-0.312,0.048
				c-0.23,0.061-0.361,0.209-0.361,0.399c0,0.036,0.005,0.092,0.042,0.204l4.144,10.513c0.15,0.388,0.352,0.562,0.717,0.6
				l-0.294-1.324c-0.176-0.794-0.621-2.283-0.886-3.034l-2.616-7.102C118.258,5.684,118.138,5.6,117.903,5.6z M126.727,5.6
				c-0.182,0-0.326,0.058-0.439,0.34l-2.567,6.96c-0.286,0.746-0.709,2.327-0.909,3.15l-0.319,1.313
				c0.359-0.04,0.558-0.208,0.699-0.574l4.153-10.564c0.049-0.102,0.055-0.162,0.055-0.201c0-0.065,0-0.262-0.388-0.378
				C126.901,5.615,126.812,5.6,126.727,5.6z"/>
		</g>
		<g>
			<path fill="#FFFFFF" d="M134.919,1.512c0,0.88-0.677,1.535-1.512,1.535c-0.857,0-1.535-0.654-1.535-1.535
				c0-0.857,0.678-1.512,1.535-1.512C134.243,0,134.919,0.654,134.919,1.512z M132.37,5.98c0-0.587,0.384-0.88,1.016-0.88
				c0.609,0,1.038,0.293,1.038,0.88v10.99c0,0.609-0.429,0.903-1.038,0.903c-0.632,0-1.016-0.293-1.016-0.903V5.98z"/>
			<path fill="#FFFFFF" d="M133.385,18.374c-0.935,0-1.516-0.538-1.516-1.403V5.98c0-0.852,0.581-1.38,1.516-1.38
				c0.935,0,1.538,0.542,1.538,1.38v10.99C134.923,17.823,134.32,18.374,133.385,18.374z M133.385,5.6
				c-0.516,0-0.516,0.22-0.516,0.38v10.99c0,0.18,0,0.403,0.516,0.403c0.538,0,0.538-0.272,0.538-0.403V5.98
				C133.923,5.867,133.923,5.6,133.385,5.6z M133.408,3.546c-1.141,0-2.035-0.894-2.035-2.035c0-1.128,0.894-2.012,2.035-2.012
				c1.128,0,2.012,0.884,2.012,2.012C135.419,2.653,134.536,3.546,133.408,3.546z M133.408,0.5c-0.59,0-1.035,0.435-1.035,1.012
				c0,0.59,0.445,1.035,1.035,1.035c0.577,0,1.012-0.445,1.012-1.035C134.419,0.944,133.975,0.5,133.408,0.5z"/>
		</g>
		<g>
			<path fill="#FFFFFF" d="M150.289,16.971c0,0.609-0.451,0.903-1.038,0.903c-0.609,0-1.038-0.293-1.038-0.903V9.749
				c0-1.918-0.768-3.001-2.46-3.001c-1.219,0-2.234,0.542-3.001,1.603c-0.564,0.767-0.79,1.421-0.79,2.302v6.319
				c0,0.609-0.429,0.903-1.016,0.903c-0.632,0-1.038-0.293-1.038-0.903V5.98c0-0.587,0.429-0.88,1.061-0.88
				c0.587,0,0.993,0.293,0.993,0.88v0.609c0,0.293-0.068,0.519-0.091,0.948c0.79-1.603,2.145-2.618,4.288-2.618
				c2.686,0,4.13,1.625,4.13,4.401V16.971z"/>
			<path fill="#FFFFFF" d="M149.25,18.374c-0.935,0-1.538-0.551-1.538-1.403V9.749c0-2.242-1.119-2.501-1.96-2.501
				c-1.053,0-1.927,0.469-2.596,1.396c-0.507,0.689-0.695,1.233-0.695,2.009v6.319c0,0.839-0.609,1.403-1.516,1.403
				c-0.949,0-1.538-0.538-1.538-1.403V5.98c0-0.838,0.613-1.38,1.561-1.38c0.854,0,1.423,0.48,1.487,1.236
				c0.931-0.941,2.17-1.417,3.703-1.417c2.942,0,4.63,1.786,4.63,4.901v7.65C150.789,17.81,150.17,18.374,149.25,18.374z
				 M145.752,6.248c1.105,0,2.96,0.455,2.96,3.501v7.222c0,0.131,0,0.403,0.538,0.403s0.538-0.292,0.538-0.403V9.32
				c0-1.78-0.63-3.901-3.63-3.901c-1.808,0-3.063,0.765-3.84,2.339l-1.075,2.18l0.127-2.428c0.012-0.226,0.035-0.399,0.056-0.554
				c0.018-0.128,0.034-0.24,0.034-0.368V5.98c0-0.133,0-0.38-0.493-0.38c-0.561,0-0.561,0.257-0.561,0.38v10.99
				c0,0.161,0,0.403,0.538,0.403c0.516,0,0.516-0.272,0.516-0.403v-6.319c0-0.989,0.257-1.742,0.887-2.598
				C143.202,6.874,144.379,6.248,145.752,6.248z"/>
		</g>
		<g>
			<path fill="#FFFFFF" d="M164.486,5.913c0-0.474,0.316-0.812,0.971-0.812c0.609,0,0.971,0.293,0.971,0.903v10.449
				c0,5.19-2.731,6.364-5.71,6.364c-2.438,0-3.994-0.812-4.852-1.918c-0.113-0.158-0.181-0.316-0.181-0.497
				c0-0.293,0.157-0.586,0.429-0.79c0.181-0.136,0.429-0.226,0.654-0.226c0.248,0,0.474,0.09,0.654,0.293
				c0.835,0.971,1.828,1.444,3.205,1.444c2.82,0,3.836-1.421,3.858-4.762c0-0.271,0.046-0.767,0.091-1.083
				c-0.745,1.421-2.031,2.415-4.018,2.415c-3.204,0-5.438-2.482-5.438-6.251c0-3.881,2.009-6.499,5.483-6.499
				c2.054,0,3.341,1.128,3.973,2.572c-0.022-0.248-0.091-0.677-0.091-0.925V5.913z M157.197,11.441c0,2.866,1.534,4.604,3.634,4.604
				c2.302,0,3.701-1.963,3.701-4.762c0-2.686-1.377-4.626-3.679-4.626S157.197,8.53,157.197,11.441z"/>
			<path fill="#FFFFFF" d="M160.717,23.316c-2.983,0-4.5-1.148-5.247-2.112c-0.196-0.271-0.286-0.529-0.286-0.803
				c0-0.45,0.235-0.895,0.629-1.19c0.606-0.456,1.498-0.409,1.981,0.135c0.761,0.885,1.633,1.277,2.832,1.277
				c2.307,0,3.223-0.982,3.345-3.706c-0.888,0.839-2.043,1.275-3.413,1.275c-3.497,0-5.938-2.776-5.938-6.751
				c0-4.252,2.349-6.999,5.983-6.999c1.352,0,2.522,0.47,3.388,1.329c0.064-0.716,0.625-1.171,1.464-1.171
				c0.907,0,1.471,0.538,1.471,1.403v10.449C166.927,21.006,164.838,23.316,160.717,23.316z M156.768,19.886
				c-0.112,0-0.254,0.05-0.354,0.125c-0.144,0.107-0.229,0.253-0.229,0.39c0,0.042,0.01,0.099,0.087,0.205
				c0.864,1.114,2.405,1.71,4.445,1.71c3.603,0,5.21-1.809,5.21-5.864V6.003c0-0.236-0.034-0.403-0.471-0.403
				c-0.471,0-0.471,0.203-0.471,0.312v0.677c0,0.148,0.029,0.368,0.053,0.564c0.015,0.117,0.028,0.228,0.036,0.316l0.277,3.065
				l-0.774-1.77c0.294,0.723,0.454,1.573,0.454,2.519c0,3.147-1.688,5.262-4.201,5.262c-2.473,0-4.134-2.051-4.134-5.104
				c0-3.259,1.593-5.284,4.156-5.284c1.638,0,2.924,0.885,3.616,2.358l-0.35-0.801c-0.372-0.849-1.322-2.272-3.515-2.272
				c-3.074,0-4.983,2.299-4.983,5.999c0,3.44,1.985,5.751,4.938,5.751c1.625,0,2.828-0.722,3.575-2.146l1.346-2.568l-0.408,2.87
				c-0.042,0.292-0.086,0.768-0.086,1.013c-0.025,3.689-1.328,5.262-4.358,5.262c-1.496,0-2.634-0.514-3.584-1.618
				C156.971,19.923,156.887,19.886,156.768,19.886z M160.853,7.157c-1.977,0-3.156,1.602-3.156,4.284
				c0,2.493,1.23,4.104,3.134,4.104c1.945,0,3.201-1.673,3.201-4.262C164.032,8.777,162.784,7.157,160.853,7.157z"/>
		</g>
	</g>
</g>
</svg>
