<?xml version="1.0" encoding="utf-8"?>
<!-- Generator: Adobe Illustrator 15.1.0, SVG Export Plug-In . SVG Version: 6.00 Build 0)  -->
<!DOCTYPE svg PUBLIC "-//W3C//DTD SVG 1.1//EN" "http://www.w3.org/Graphics/SVG/1.1/DTD/svg11.dtd">
<svg version="1.1" id="レイヤー_2" xmlns="http://www.w3.org/2000/svg" xmlns:xlink="http://www.w3.org/1999/xlink" x="0px"
	 y="0px" width="90px" height="70px" viewBox="0 0 90 70" enable-background="new 0 0 90 70" xml:space="preserve">
<g>
	<path fill="#FF533F" stroke="#FF533F" stroke-width="0.5" stroke-miterlimit="10" d="M10.66,36.248
		c-0.103,0-0.207-0.018-0.311-0.052l-7.705-2.543c-0.25-0.082-0.44-0.24-0.548-0.456c-0.118-0.234-0.128-0.512-0.031-0.804
		c0.153-0.462,0.493-0.739,0.911-0.739c0.102,0,0.207,0.018,0.311,0.051l7.705,2.544c0.279,0.092,0.485,0.289,0.581,0.553
		c0.08,0.219,0.077,0.471-0.009,0.729C11.418,35.974,11.071,36.248,10.66,36.248z"/>
	<path fill="#FF533F" stroke="#FF533F" stroke-width="0.5" stroke-miterlimit="10" d="M2.793,33.2
		c-0.304-0.1-0.374-0.364-0.277-0.657c0.101-0.304,0.318-0.486,0.622-0.385l7.704,2.544c0.293,0.097,0.371,0.375,0.27,0.679
		c-0.097,0.293-0.32,0.46-0.614,0.364L2.793,33.2z"/>
	<path fill="#FF533F" stroke="#FF533F" stroke-width="0.5" stroke-miterlimit="10" d="M12.419,31.705
		c-0.156,0-0.312-0.042-0.463-0.125L7.07,28.903c-0.253-0.14-0.417-0.363-0.462-0.631C6.57,28.05,6.619,27.807,6.749,27.57
		c0.186-0.338,0.484-0.535,0.819-0.537c-0.089-0.593,0.032-1.205,0.365-1.813c0.626-1.143,1.491-1.382,2.106-1.382
		c0.478,0,0.982,0.145,1.503,0.429l3.401,1.864c0.255,0.139,0.422,0.364,0.469,0.633c0.04,0.224-0.006,0.465-0.132,0.695
		c-0.192,0.351-0.499,0.552-0.841,0.552c-0.155,0-0.31-0.041-0.458-0.122l-3.211-1.76c-0.282-0.154-0.524-0.233-0.72-0.233
		c-0.161,0-0.37,0.047-0.567,0.407c-0.223,0.407-0.225,0.83-0.006,1.292c0.164,0.351,0.328,0.533,0.629,0.698l2.81,1.54
		c0.482,0.264,0.624,0.805,0.344,1.316C12.992,31.633,12.619,31.705,12.419,31.705z"/>
	<path fill="#FF533F" stroke="#FF533F" stroke-width="0.5" stroke-miterlimit="10" d="M14.714,26.547
		c0.271,0.149,0.292,0.421,0.148,0.682c-0.148,0.271-0.383,0.39-0.654,0.241l-3.21-1.758c-0.853-0.468-1.521-0.39-1.934,0.362
		c-0.297,0.542-0.304,1.125-0.019,1.724c0.204,0.438,0.44,0.698,0.831,0.912l2.81,1.54c0.271,0.148,0.296,0.41,0.154,0.671
		c-0.154,0.281-0.383,0.39-0.654,0.242l-4.887-2.677c-0.26-0.143-0.287-0.405-0.132-0.686c0.143-0.261,0.373-0.37,0.633-0.228
		l0.271,0.149c0.129,0.071,0.214,0.156,0.399,0.271c-0.52-0.742-0.642-1.591-0.119-2.544c0.654-1.194,1.729-1.441,2.962-0.765
		L14.714,26.547z"/>
	<path fill="#FF533F" stroke="#FF533F" stroke-width="0.5" stroke-miterlimit="10" d="M16.928,23.578
		c-0.931,0-1.894-0.426-2.786-1.231c-0.815-0.737-1.314-1.579-1.441-2.436c-0.133-0.897,0.142-1.754,0.795-2.477
		c0.413-0.458,0.88-0.751,1.394-0.877l-1.482-1.338c-0.213-0.192-0.325-0.444-0.315-0.708c0.008-0.229,0.104-0.452,0.279-0.645
		c0.272-0.301,0.551-0.364,0.737-0.364c0.154,0,0.387,0.044,0.621,0.254l6.041,5.458c0.414,0.375,0.422,0.926,0.021,1.37
		c-0.263,0.291-0.539,0.352-0.724,0.352c-0.054,0-0.107-0.005-0.158-0.015c-0.047,0.579-0.3,1.126-0.761,1.635
		C18.544,23.225,17.776,23.578,16.928,23.578z M15.929,18.108c-0.369,0-0.696,0.155-0.971,0.46
		c-0.274,0.303-0.375,0.648-0.297,1.027c0.085,0.415,0.374,0.854,0.834,1.271c0.529,0.478,1.072,0.741,1.531,0.741l0,0
		c0.327,0,0.613-0.135,0.853-0.399c0.727-0.805,0.191-1.809-0.488-2.422C16.908,18.349,16.389,18.108,15.929,18.108z"/>
	<path fill="#FF533F" stroke="#FF533F" stroke-width="0.5" stroke-miterlimit="10" d="M13.728,14.865
		c-0.229-0.207-0.194-0.468-0.002-0.68c0.215-0.238,0.456-0.283,0.685-0.076l6.041,5.458c0.229,0.208,0.202,0.46-0.013,0.698
		c-0.223,0.247-0.466,0.243-0.645,0.082l-0.178-0.161c-0.094-0.084-0.257-0.262-0.368-0.378c0.333,0.826,0.261,1.641-0.453,2.43
		c-1.121,1.24-2.804,1.14-4.333-0.242c-1.488-1.343-1.749-2.984-0.613-4.241c0.714-0.79,1.518-0.929,2.39-0.681
		c-0.211-0.16-0.473-0.365-0.66-0.534L13.728,14.865z M15.177,21.22c1.113,1.005,2.28,1.165,3.056,0.307
		c0.806-0.892,0.531-2.143-0.522-3.095c-1.037-0.936-2.262-1.117-3.106-0.183C13.829,19.108,14.098,20.245,15.177,21.22z"/>
	<path fill="#FF533F" stroke="#FF533F" stroke-width="0.5" stroke-miterlimit="10" d="M23.948,17.246
		c-1.149,0-2.236-0.658-3.061-1.853c-0.624-0.905-0.9-1.855-0.797-2.748c0.107-0.932,0.617-1.737,1.474-2.328
		c0.608-0.419,1.249-0.632,1.905-0.632c1.14,0,2.217,0.652,3.034,1.835c0.625,0.906,0.911,1.858,0.825,2.752
		c-0.09,0.941-0.578,1.741-1.41,2.315C25.285,17.025,24.622,17.246,23.948,17.246z M23.304,11.582c-0.229,0-0.454,0.076-0.671,0.225
		c-0.375,0.259-0.577,0.594-0.599,0.997c-0.024,0.436,0.156,0.948,0.523,1.479c0.467,0.678,1.039,1.066,1.568,1.066l0,0
		c0.239,0,0.472-0.077,0.695-0.231c0.968-0.668,0.548-1.711,0.025-2.47C24.378,11.97,23.816,11.582,23.304,11.582z"/>
	<path fill="#FF533F" stroke="#FF533F" stroke-width="0.5" stroke-miterlimit="10" d="M26.111,11.79
		c1.13,1.639,1.006,3.392-0.464,4.406c-1.554,1.072-3.211,0.603-4.368-1.074c-1.125-1.629-0.971-3.361,0.555-4.414
		C23.342,9.669,24.98,10.151,26.111,11.79z M22.166,14.554c0.825,1.196,1.956,1.625,2.925,0.956
		c1.027-0.708,1.011-1.879,0.147-3.132c-0.818-1.187-1.914-1.626-2.875-0.963C21.346,12.116,21.301,13.301,22.166,14.554z"/>
	<path fill="#FF533F" stroke="#FF533F" stroke-width="0.5" stroke-miterlimit="10" d="M32.108,12.861
		c-1.432,0-2.622-0.943-3.265-2.588c-0.4-1.024-0.45-2.013-0.146-2.858c0.319-0.883,1-1.549,1.97-1.928
		c0.439-0.172,0.878-0.259,1.304-0.259c1.416,0,2.591,0.935,3.228,2.563c0.401,1.026,0.461,2.018,0.172,2.87
		c-0.303,0.896-0.961,1.562-1.905,1.931C33.008,12.77,32.551,12.861,32.108,12.861z M31.83,7.088c-0.149,0-0.305,0.032-0.463,0.093
		c-0.424,0.166-0.698,0.447-0.812,0.834c-0.124,0.419-0.065,0.959,0.17,1.561c0.354,0.907,0.914,1.428,1.536,1.428l0,0
		c0.154,0,0.314-0.032,0.478-0.095c1.095-0.428,0.926-1.541,0.591-2.399C32.975,7.605,32.429,7.088,31.83,7.088z"/>
	<path fill="#FF533F" stroke="#FF533F" stroke-width="0.5" stroke-miterlimit="10" d="M34.756,7.963
		c0.725,1.855,0.202,3.535-1.462,4.184c-1.758,0.687-3.266-0.15-4.007-2.048c-0.72-1.844-0.174-3.496,1.554-4.17
		C32.546,5.263,34.032,6.108,34.756,7.963z M30.281,9.749c0.528,1.354,1.531,2.031,2.629,1.603c1.162-0.454,1.416-1.598,0.862-3.016
		c-0.525-1.343-1.491-2.022-2.579-1.597C30.042,7.188,29.727,8.331,30.281,9.749z"/>
	<path fill="#FF533F" stroke="#FF533F" stroke-width="0.5" stroke-miterlimit="10" d="M39.587,10.647
		c-0.487,0-0.853-0.304-0.932-0.773l-0.917-5.499c-0.047-0.286,0.027-0.553,0.209-0.753c0.153-0.167,0.374-0.279,0.641-0.323
		c0.067-0.012,0.135-0.018,0.201-0.018c0.284,0,0.526,0.104,0.695,0.281c0.309-0.321,0.725-0.573,1.245-0.679
		c0.068-0.022,0.166-0.039,0.263-0.055c0.136-0.022,0.25-0.031,0.369-0.031c0.062,0,0.196,0.006,0.197,0.006
		c0.463,0,0.797,0.285,0.873,0.745c0.012,0.074,0.016,0.174,0.016,0.272c-0.01,0.517-0.317,0.908-0.764,0.983l-0.04,0.007
		l-0.112,0.007c-0.033,0-0.066-0.001-0.102-0.007L41.29,4.809c-0.077,0-0.159,0.005-0.264,0.023
		c-0.288,0.055-0.52,0.241-0.698,0.569c-0.195,0.343-0.263,0.68-0.212,1.038l0.519,3.105c0.09,0.542-0.249,0.988-0.824,1.084
		C39.732,10.641,39.658,10.647,39.587,10.647z"/>
	<path fill="#FF533F" stroke="#FF533F" stroke-width="0.5" stroke-miterlimit="10" d="M38.208,4.297
		c-0.049-0.293,0.141-0.476,0.457-0.529c0.283-0.047,0.532,0.062,0.582,0.355l0.042,0.249c0.026,0.158,0.012,0.357,0.021,0.542
		c0.09-0.572,0.549-1.368,1.514-1.564c0.089-0.026,0.167-0.04,0.247-0.052c0.169-0.028,0.297-0.027,0.461-0.02
		c0.265-0.009,0.393,0.132,0.428,0.347c0.01,0.056,0.01,0.125,0.01,0.195c-0.005,0.244-0.129,0.474-0.367,0.514
		C41.569,4.34,41.534,4.345,41.5,4.34c-0.164-0.008-0.316-0.017-0.553,0.022c-0.484,0.092-0.815,0.402-1.037,0.811
		c-0.233,0.41-0.333,0.856-0.265,1.333l0.52,3.116c0.051,0.305-0.15,0.489-0.433,0.537c-0.316,0.052-0.554-0.059-0.605-0.363
		L38.208,4.297z"/>
	<path fill="#FF533F" stroke="#FF533F" stroke-width="0.5" stroke-miterlimit="10" d="M57.307,11.206
		c-0.062,0-0.124-0.006-0.189-0.019l-4.31-0.856c-0.538-0.107-0.905-0.324-1.124-0.664c-0.216-0.336-0.267-0.769-0.156-1.325
		l1.416-7.127c0.095-0.479,0.456-0.776,0.94-0.776c0.082,0,0.167,0.009,0.254,0.026c0.308,0.061,0.547,0.209,0.693,0.427
		c0.093,0.141,0.192,0.379,0.125,0.712l-1.362,6.86l3.911,0.778c0.537,0.107,0.846,0.588,0.735,1.145
		C58.146,10.869,57.762,11.206,57.307,11.206z"/>
	<path fill="#FF533F" stroke="#FF533F" stroke-width="0.5" stroke-miterlimit="10" d="M53.41,1.307
		c0.067-0.336,0.33-0.436,0.635-0.375c0.313,0.062,0.51,0.253,0.443,0.578l-1.377,6.938c-0.051,0.258,0.069,0.422,0.326,0.473
		l3.975,0.789c0.292,0.059,0.417,0.305,0.36,0.585c-0.052,0.27-0.27,0.483-0.562,0.425L52.9,9.864
		c-0.797-0.158-1.077-0.576-0.906-1.429L53.41,1.307z"/>
	<path fill="#FF533F" stroke="#FF533F" stroke-width="0.5" stroke-miterlimit="10" d="M61.089,12.669
		c-0.142,0-0.289-0.03-0.436-0.088c-0.356-0.142-0.514-0.364-0.583-0.525c-0.065-0.151-0.117-0.398,0.008-0.71l2.058-5.179
		c0.146-0.364,0.455-0.581,0.826-0.581c0.14,0,0.287,0.03,0.436,0.09c0.286,0.113,0.491,0.299,0.593,0.537
		c0.093,0.216,0.093,0.456-0.002,0.692l-2.058,5.178C61.783,12.451,61.469,12.669,61.089,12.669z M63.907,5.687
		c-0.16,0-0.315-0.03-0.465-0.089c-0.314-0.125-0.561-0.36-0.693-0.662c-0.132-0.305-0.136-0.648-0.009-0.967
		c0.188-0.476,0.641-0.783,1.149-0.783c0.161,0,0.322,0.031,0.476,0.092c0.647,0.257,0.953,0.967,0.694,1.614
		C64.868,5.374,64.415,5.687,63.907,5.687z"/>
	<path fill="#FF533F" stroke="#FF533F" stroke-width="0.5" stroke-miterlimit="10" d="M62.579,6.342
		C62.688,6.066,62.925,6,63.224,6.118c0.285,0.114,0.434,0.333,0.322,0.609l-2.059,5.18c-0.114,0.287-0.371,0.345-0.658,0.23
		c-0.297-0.118-0.424-0.328-0.309-0.615L62.579,6.342z M64.618,4.714c-0.165,0.416-0.605,0.596-1,0.44
		c-0.404-0.161-0.601-0.596-0.436-1.011c0.16-0.404,0.602-0.585,1.006-0.425C64.582,3.875,64.779,4.31,64.618,4.714z"/>
	<path fill="#FF533F" stroke="#FF533F" stroke-width="0.5" stroke-miterlimit="10" d="M66.953,15.606
		c-0.217,0-0.43-0.065-0.648-0.198c-0.585-0.357-0.63-0.876-0.562-1.25l0.991-5.657c0.034-0.148,0.073-0.248,0.127-0.338
		c0.173-0.278,0.469-0.443,0.796-0.443c0.1,0,0.198,0.015,0.295,0.044c0.109,0.03,0.226,0.079,0.324,0.14
		c0.365,0.223,0.529,0.604,0.441,1.019c0,0-0.75,3.772-0.75,3.778c0.023-0.018,3.02-2.385,3.02-2.385
		c0.199-0.149,0.402-0.221,0.612-0.221c0.173,0,0.339,0.049,0.495,0.145c0.094,0.057,0.178,0.128,0.269,0.224
		c0.315,0.351,0.37,0.786,0.152,1.141c-0.077,0.125-0.177,0.225-0.296,0.299l-4.555,3.446
		C67.442,15.519,67.201,15.606,66.953,15.606z"/>
	<path fill="#FF533F" stroke="#FF533F" stroke-width="0.5" stroke-miterlimit="10" d="M71.283,10.69
		c0.197-0.148,0.388-0.153,0.563-0.045c0.059,0.036,0.109,0.082,0.168,0.143c0.158,0.178,0.209,0.383,0.096,0.568
		c-0.031,0.049-0.075,0.102-0.143,0.143l-4.591,3.471c-0.302,0.231-0.569,0.188-0.825,0.032c-0.262-0.161-0.407-0.384-0.34-0.758
		l0.992-5.659C67.22,8.513,67.24,8.459,67.27,8.41c0.113-0.186,0.33-0.255,0.546-0.19c0.081,0.022,0.154,0.054,0.214,0.09
		c0.175,0.107,0.273,0.275,0.223,0.512l-0.748,3.769c-0.087,0.403-0.291,1.178-0.429,1.577c0.31-0.307,0.92-0.887,1.25-1.142
		L71.283,10.69z"/>
	<path fill="#FF533F" stroke="#FF533F" stroke-width="0.5" stroke-miterlimit="10" d="M72.079,19.431
		c-0.238,0-0.476-0.099-0.687-0.283c-0.444-0.391-0.499-0.936-0.131-1.355l3.669-4.194c0.235-0.268,0.496-0.324,0.676-0.324
		c0.162,0,0.412,0.049,0.678,0.283c0.23,0.202,0.361,0.445,0.379,0.704c0.016,0.235-0.066,0.46-0.232,0.651l-3.668,4.193
		C72.578,19.315,72.337,19.431,72.079,19.431z M77.168,13.808c-0.299,0-0.589-0.11-0.817-0.311c-0.528-0.463-0.58-1.241-0.117-1.77
		c0.238-0.271,0.574-0.426,0.93-0.426c0.303,0,0.6,0.112,0.833,0.317c0.251,0.22,0.403,0.524,0.425,0.854
		c0.02,0.328-0.089,0.648-0.311,0.9C77.871,13.648,77.526,13.808,77.168,13.808z"/>
	<path fill="#FF533F" stroke="#FF533F" stroke-width="0.5" stroke-miterlimit="10" d="M75.289,13.913
		c0.196-0.224,0.44-0.208,0.681,0.003c0.232,0.203,0.3,0.458,0.102,0.682l-3.668,4.194c-0.203,0.232-0.465,0.201-0.696-0.002
		c-0.241-0.211-0.292-0.451-0.089-0.684L75.289,13.913z M77.755,13.059c-0.295,0.335-0.771,0.359-1.09,0.081
		c-0.326-0.286-0.368-0.762-0.074-1.098c0.287-0.327,0.765-0.35,1.09-0.064C78,12.256,78.04,12.731,77.755,13.059z"/>
	<path fill="#FF533F" stroke="#FF533F" stroke-width="0.5" stroke-miterlimit="10" d="M78.068,25.978
		c-0.291,0-0.569-0.145-0.78-0.411c-0.374-0.466-0.334-1.016,0.102-1.365l2.859-2.293c0.294-0.238,0.475-0.47,0.523-0.676
		c0.026-0.115,0.035-0.3-0.19-0.581c-0.272-0.339-0.631-0.504-1.093-0.504l-0.099,0.002c-0.39,0.016-0.62,0.099-0.887,0.314
		l-2.503,2.006c-0.175,0.14-0.376,0.214-0.581,0.214c-0.286,0-0.56-0.144-0.769-0.405c-0.241-0.301-0.27-0.576-0.25-0.753
		c0.019-0.165,0.094-0.404,0.353-0.612l4.349-3.488c0.17-0.136,0.366-0.208,0.568-0.208c0.288,0,0.57,0.15,0.787,0.423
		c0.184,0.229,0.267,0.482,0.24,0.733c-0.008,0.079-0.027,0.155-0.057,0.227c0.584,0.144,1.098,0.49,1.535,1.035
		c0.5,0.625,0.713,1.299,0.615,1.953c-0.096,0.641-0.472,1.229-1.119,1.749l-3.028,2.428C78.472,25.904,78.272,25.978,78.068,25.978
		z"/>
	<path fill="#FF533F" stroke="#FF533F" stroke-width="0.5" stroke-miterlimit="10" d="M78.347,25.396
		c-0.241,0.193-0.501,0.107-0.686-0.125c-0.195-0.242-0.213-0.504,0.026-0.698l2.858-2.292c0.76-0.609,0.943-1.256,0.406-1.925
		c-0.386-0.482-0.922-0.713-1.586-0.68c-0.482,0.021-0.814,0.139-1.16,0.418l-2.502,2.005c-0.242,0.194-0.494,0.117-0.68-0.115
		c-0.201-0.25-0.214-0.504,0.027-0.697l4.351-3.488c0.23-0.187,0.483-0.11,0.684,0.14c0.188,0.232,0.198,0.486-0.033,0.673
		l-0.239,0.193c-0.117,0.093-0.229,0.138-0.406,0.265c0.885-0.196,1.718,0.018,2.397,0.866c0.853,1.063,0.667,2.15-0.431,3.031
		L78.347,25.396z"/>
	<path fill="#FF533F" stroke="#FF533F" stroke-width="0.5" stroke-miterlimit="10" d="M78.974,35.104
		c-1.192,0-2.115-0.67-2.742-1.994c-0.689-1.447-0.475-2.462-0.174-3.059c0.112-0.201,0.242-0.326,0.408-0.406
		c0.125-0.06,0.259-0.088,0.399-0.088c0.165,0,0.333,0.042,0.484,0.121c0.196,0.105,0.36,0.274,0.452,0.468
		c0.115,0.244,0.12,0.511,0.016,0.755c-0.215,0.485-0.205,0.9,0.029,1.391c0.368,0.779,0.736,0.886,1.08,0.886
		c0.17,0,2.328-1.014,2.551-1.08c-0.406-0.267-0.732-0.655-0.971-1.157c-0.816-1.719-0.031-3.564,1.908-4.485
		c0.686-0.326,1.356-0.491,1.99-0.491c1.26,0,2.259,0.645,2.813,1.817c0.268,0.559,0.342,1.134,0.231,1.677
		c0.317,0.028,0.59,0.236,0.752,0.581c0.149,0.311,0.125,0.56,0.081,0.714c-0.051,0.169-0.181,0.404-0.509,0.56l-4.788,2.272
		C82.237,33.943,79.585,35.104,78.974,35.104z M84.469,27.958c-0.354,0-0.767,0.107-1.193,0.31c-1.021,0.485-1.45,1.282-1.094,2.032
		c0.283,0.6,0.81,0.726,1.202,0.726l0,0c0.351,0,0.749-0.102,1.149-0.291c0.817-0.388,1.534-1.132,1.095-2.057
		C85.401,28.2,85.013,27.958,84.469,27.958z"/>
</g>
<circle fill="#FF533F" cx="46.209" cy="42.438" r="27.24"/>
<g>
	<defs>
		<circle id="SVGID_1_" cx="46.209" cy="42.438" r="27.24"/>
	</defs>
	<clipPath id="SVGID_2_">
		<use xlink:href="#SVGID_1_"  overflow="visible"/>
	</clipPath>
	<g clip-path="url(#SVGID_2_)">
		
			<polyline fill="none" stroke="#FFFFFF" stroke-width="2" stroke-linecap="round" stroke-linejoin="round" stroke-miterlimit="10" points="
			18.18,59.724 40.421,59.724 40.421,42.105 31.803,42.105 58.623,24.427 58.623,24.427 85.441,42.105 76.823,42.105 76.823,59.724 
			99.064,59.724 		"/>
		<path fill="none" stroke="#FFFFFF" stroke-width="2" stroke-linecap="round" stroke-linejoin="round" stroke-miterlimit="10" d="
			M57.579,59.724v-10.22c0-2.879-2.333-5.214-5.215-5.214l0,0c-2.877,0-5.213,2.335-5.213,5.214v10.22H57.579z"/>
	</g>
</g>
</svg>
